# xmcd
#
# Track frame offsets:
#	160
#	19493
#	35535
#	59078
#	86252
#	103705
#	122478
#	144355
#	164814
#	183268
#	205394
#	224283
#	238805
#	257025
#	272884
#
# Disc length: 3861 seconds
#
# Revision: 0
# Processed by: cddbd v1.5.2PL0 Copyright (c) Steve Scherf et al.
# Submitted via: EasyCDDAExtractor 16.0.9.1
#
DISCID=e40f130f
DTITLE=Various Artist - Dancing Paradise (For Lovers)
DYEAR=1999
DGENRE=Pop
TTITLE0=Stevie B. - Because I Love You
TTITLE1=Jemma and Elise - Give Me Your Love
TTITLE2=Down Low - Johnny B.
TTITLE3=Regina - Talk To Me
TTITLE4=Nylon Beat - Like A Fool
TTITLE5=N-Trance - Broken Dreams
TTITLE6=Donna Richards - Ine Of Us (Twilight mix)
TTITLE7=Kate - Feels Like Heaven
TTITLE8=Dear Mom - With Every Beat Of My Heart
TTITLE9=Gala - Summer Eclipse
TTITLE10=Paradisio - Never Again
TTITLE11=F.R. David - Music
TTITLE12=Sweet Connection - True
TTITLE13=Double You - She's Beautiful
TTITLE14=Rappers Agains Racism feat. Down Low, La Mazz and Scream Factory - I Wa
TTITLE14=nt To Know What Love Is (Sweet Mix)
EXTD=
EXTT0=
EXTT1=
EXTT2=
EXTT3=
EXTT4=
EXTT5=
EXTT6=
EXTT7=
EXTT8=
EXTT9=
EXTT10=
EXTT11=
EXTT12=
EXTT13=
EXTT14=
PLAYORDER=
